<?xml version="1.0" standalone="no"?><!DOCTYPE svg PUBLIC "-//W3C//DTD SVG 1.1//EN" "http://www.w3.org/Graphics/SVG/1.1/DTD/svg11.dtd"><svg t="1514392563068" class="icon" style="" viewBox="0 0 1024 1024" version="1.1" xmlns="http://www.w3.org/2000/svg" p-id="10477" xmlns:xlink="http://www.w3.org/1999/xlink" width="200" height="200"><defs><style type="text/css"></style></defs><path d="M728.177778 398.222222c17.066667-17.066667 34.133333-125.155556-34.133334-193.422222-5.688889-5.688889-22.755556-17.066667-28.444444-22.755556-102.4-56.888889-91.022222-125.155556-91.022222-125.155555-329.955556 164.977778-210.488889 335.644444-204.8 341.333333H113.777778c-34.133333 0-56.888889 22.755556-56.888889 56.888889v455.111111c0 34.133333 22.755556 56.888889 56.888889 56.888889h796.444444c34.133333 0 56.888889-22.755556 56.888889-56.888889V455.111111c0-34.133333-22.755556-56.888889-56.888889-56.888889h-182.044444zM546.133333 130.844444s11.377778 51.2 85.333334 96.711112l17.066666 17.066666c45.511111 56.888889 22.755556 142.222222 11.377778 153.6h-45.511111v-11.377778c0-45.511111-22.755556-85.333333-28.444444-68.266666-5.688889 17.066667-17.066667 34.133333-17.066667 34.133333-39.822222 39.822222-34.133333-96.711111-34.133333-96.711111-85.333333 56.888889-73.955556 125.155556-68.266667 142.222222h-34.133333c-11.377778-11.377778-96.711111-119.466667 113.777777-267.377778zM113.777778 455.111111h455.111111v113.777778H113.777778V455.111111z m0 170.666667h170.666666v113.777778H113.777778v-113.777778z m398.222222 284.444444H113.777778v-113.777778h398.222222v113.777778z m-170.666667-170.666666v-113.777778h398.222223v113.777778H341.333333z m568.888889 170.666666h-341.333333v-113.777778h341.333333v113.777778z m0-170.666666h-113.777778v-113.777778h113.777778v113.777778z m0-170.666667h-284.444444V455.111111h284.444444v113.777778z" p-id="10478" fill="#9e9e9e"></path></svg>