<?xml version="1.0" standalone="no"?><!DOCTYPE svg PUBLIC "-//W3C//DTD SVG 1.1//EN" "http://www.w3.org/Graphics/SVG/1.1/DTD/svg11.dtd"><svg t="1514394514068" class="icon" style="" viewBox="0 0 1024 1024" version="1.1" xmlns="http://www.w3.org/2000/svg" p-id="11121" xmlns:xlink="http://www.w3.org/1999/xlink" width="200" height="200"><defs><style type="text/css"></style></defs><path d="M728.2432 997.59104H314.45504a30.65856 30.65856 0 0 1-30.65344-30.63808 30.63808 30.63808 0 0 1 30.65344-30.64832h413.78816a30.64832 30.64832 0 0 1 0 61.2864zM1017.6 707.44576c0 58.68544-47.5648 106.25024-106.22976 106.25024H112.34304c-58.65984 0-106.22976-47.56992-106.22976-106.25024V138.31168c0-58.67008 47.56992-106.23488 106.22976-106.23488h799.0272c58.66496 0 106.22976 47.5648 106.22976 106.23488v569.13408z m-46.3872-578.69312a46.43328 46.43328 0 0 0-46.43328-46.43328H98.93376a46.4384 46.4384 0 0 0-46.4384 46.43328v588.24704a46.4384 46.4384 0 0 0 46.4384 46.44864h825.84576c25.6512 0 46.43328-20.79744 46.43328-46.44864V128.75264z" fill="#ffffff" p-id="11122"></path><path d="M988.7744 645.09952H38.59456c-8.4736 0-15.32416-6.85568-15.32416-15.32416s6.84544-15.32416 15.32416-15.32416H988.7744c8.45312 0 15.32928 6.85568 15.32928 15.32416s-6.87616 15.32416-15.32928 15.32416zM988.7744 200.66304H38.59456a15.31392 15.31392 0 0 1-15.32416-15.32928 15.3088 15.3088 0 0 1 15.32416-15.32416H988.7744a15.32928 15.32928 0 1 1 0 30.65344z" fill="#ffffff" p-id="11123"></path><path d="M292.29056 402.05312a15.31392 15.31392 0 0 1-14.26944-20.89472l4.15744-10.6752a15.32928 15.32928 0 0 1 28.55424 11.136l-4.16256 10.66496a15.3088 15.3088 0 0 1-14.27968 9.76896zM233.856 552.13056a15.3088 15.3088 0 0 1-14.2592-20.88448l43.45856-111.62112a15.27296 15.27296 0 0 1 19.82976-8.70912 15.32928 15.32928 0 0 1 8.7296 19.84l-43.45856 111.61088a15.36 15.36 0 0 1-14.30016 9.76384zM171.74528 447.90784a15.31904 15.31904 0 0 1-14.27968-20.87424l63.54944-163.25632a15.3088 15.3088 0 0 1 19.84-8.72448 15.31904 15.31904 0 0 1 8.7296 19.82976L186.04032 438.13376a15.34464 15.34464 0 0 1-14.29504 9.77408zM141.90592 524.48768a14.9504 14.9504 0 0 1-5.5552-1.0496 15.29344 15.29344 0 0 1-8.704-19.84l9.33376-23.99232a15.32928 15.32928 0 0 1 28.55424 11.14112l-9.33888 23.98208a15.33952 15.33952 0 0 1-14.28992 9.75872z" fill="#ffffff" p-id="11124"></path></svg>