<?xml version="1.0" standalone="no"?><!DOCTYPE svg PUBLIC "-//W3C//DTD SVG 1.1//EN" "http://www.w3.org/Graphics/SVG/1.1/DTD/svg11.dtd"><svg t="1514398116910" class="icon" style="" viewBox="0 0 1024 1024" version="1.1" xmlns="http://www.w3.org/2000/svg" p-id="11820" xmlns:xlink="http://www.w3.org/1999/xlink" width="200" height="200"><defs><style type="text/css"></style></defs><path d="M513.93024 63.8208c60.45184 0 119.03488 11.84256 174.22848 35.16416a446.39744 446.39744 0 0 1 142.2592 95.90784 446.40256 446.40256 0 0 1 95.90272 142.26432c23.31648 55.19872 35.16928 113.77152 35.16928 174.13632v0.09728c0 60.46208-11.8528 119.03488-35.16928 174.1312a446.28992 446.28992 0 0 1-95.90272 142.26432 446.39744 446.39744 0 0 1-142.2592 95.90784c-55.1936 23.3216-113.78176 35.15392-174.22848 35.15392-60.46208 0-119.03488-11.83744-174.22848-35.15392a446.3104 446.3104 0 0 1-142.26432-95.90784 446.32064 446.32064 0 0 1-95.91296-142.26432c-23.31648-55.18848-35.15904-113.77152-35.15904-174.1312v-0.09728c0-60.45696 11.84256-119.03488 35.15904-174.13632a446.43328 446.43328 0 0 1 95.91296-142.26432 446.3104 446.3104 0 0 1 142.26432-95.90784c55.1936-23.3216 113.7664-35.16416 174.22848-35.16416m0-48.06656c-273.76128 0-495.63648 221.87008-495.63648 495.63648v0.09728c0 273.67424 221.87008 495.63648 495.63648 495.63648 273.77152 0 495.6416-221.8752 495.6416-495.63648v-0.1024c0-273.76128-221.87008-495.63136-495.6416-495.63136z" fill="#c8c8c8" p-id="11821"></path><path d="M529.85856 228.5056l-40.03328-40.04352v-1.00864h-1.01376l-13.7984-13.79328-13.7984 13.79328h-1.67936v1.68448l-39.37792 39.36768v46.61248l39.45984-39.45984 0.26112 167.92064a53.0944 53.0944 0 0 1-15.15008 37.26848c-10.17344 10.42944-24.30976 15.98464-38.86592 15.98464h-38.11328a15.19104 15.19104 0 0 0-15.13984 15.13984 15.18592 15.18592 0 0 0 15.13984 15.14496h38.02624c22.21056 0 43.65824-8.41216 59.48416-23.97184a83.17952 83.17952 0 0 0 24.9856-59.73504l-0.25088-168.34048 39.95648 40.04352V228.5056h-0.09216z m307.34336 227.9936v-0.25088h-0.26112l-39.29088-39.29088h-46.60224l39.36256 39.3728-169.09312 0.3328h-0.16896a53.21216 53.21216 0 0 1-37.68832-15.5648 52.98176 52.98176 0 0 1-15.65184-37.77536V364.288c0-8.33024-6.8096-15.14496-15.13984-15.14496s-15.15008 6.81472-15.15008 15.14496v39.03488c0 22.38464 8.75008 43.41248 24.57088 59.22816a83.18976 83.18976 0 0 0 59.0592 24.40192h0.25088l169.68704-0.33792-40.03328 40.04352h46.60736l54.85056-54.85568-15.3088-15.30368z m-215.12704 77.65504c-22.54336 0-43.74528 8.832-59.73504 24.81664-15.89248 15.98464-24.64768 37.19168-24.57088 59.72992l0.33792 169.09312-40.04864-40.03328v46.61248l54.85568 54.85056 15.47776-15.47264h0.08192v-0.16384l39.296-39.296v-46.61248l-39.3728 39.3728-0.32768-168.51456c0-14.30016 5.38112-27.66848 15.39584-37.85728 10.34752-10.5984 24.73472-16.24064 39.53664-16.24064h37.62176a15.18592 15.18592 0 0 0 15.13984-15.13472 15.19104 15.19104 0 0 0-15.13984-15.14496h-38.54848z m-155.55072 25.64608c-16.0768-16.31232-37.52448-25.3184-60.41088-25.3184h-0.24576l-169.51808 0.33792 40.46336-40.37632H230.1952l-54.84544 54.85568 15.72352 15.7184v0.16896h0.16896l38.94784 38.95808h46.61248l-39.20896-39.04512 168.26368-0.3328h0.16896c14.464 0 28.09344 5.64736 38.35392 15.8976a53.87264 53.87264 0 0 1 15.98464 38.528v37.8624a15.19104 15.19104 0 0 0 15.13984 15.14496 15.19104 15.19104 0 0 0 15.15008-15.14496v-36.93568c0.1024-22.53312-8.40704-44.2368-24.13056-60.31872z" fill="#c8c8c8" p-id="11822"></path></svg>