<?xml version="1.0" standalone="no"?><!DOCTYPE svg PUBLIC "-//W3C//DTD SVG 1.1//EN" "http://www.w3.org/Graphics/SVG/1.1/DTD/svg11.dtd"><svg t="1514394498702" class="icon" style="" viewBox="0 0 1024 1024" version="1.1" xmlns="http://www.w3.org/2000/svg" p-id="10794" xmlns:xlink="http://www.w3.org/1999/xlink" width="200" height="200"><defs><style type="text/css"></style></defs><path d="M78.96576 340.02944h867.30752V91.20768H78.96576v248.82176zM43.52 659.84c-7.11168-7.11168-8.3456-23.61344-8.3456-30.72V381.53728c0-14.21312 0-12.8256 7.11168-19.93728C35.1744 354.49344 35.1744 341.18144 35.1744 334.08V101.44768c0-49.60768-0.6144-54.03136 43.79136-54.03136h867.30752c45.30688 0 43.79136 6.99904 43.79136 54.03136v238.57664c0 14.21824-2.74944 16.24064-7.86944 19.23072 7.11168 7.11168 7.86944 9.81504 7.86944 22.27712v248.82176c0 13.48608 1.6896 19.6352-7.11168 28.43648 7.93088 7.93088 7.11168 15.7696 7.11168 20.17792v248.82176c0 39.88992 1.94048 43.79136-43.79136 43.79136H78.96576c-36.72576 0-43.79136-3.90144-43.79136-43.79136v-248.82176c0-7.09632 1.23392-12.01664 8.3456-19.12832z m35.44576 267.95008h867.30752v-248.82176H78.96576v248.82176z m0-290.32448h867.30752V381.53728H78.96576v255.92832z" fill="#ffffff" p-id="10795"></path><path d="M164.27008 226.2784c21.3248 0 35.54304-14.21824 35.54304-35.54304 0-21.32992-21.3248-35.54304-35.54304-35.54304-21.3248 0-35.54304 14.21312-35.54304 35.54304 0 21.3248 14.21824 35.54304 35.54304 35.54304z m142.1824 0c21.32992 0 35.54816-14.21824 35.54816-35.54304 0-21.32992-14.21824-35.54304-35.54816-35.54304s-35.53792 14.21312-35.53792 35.54304c-0.00512 21.3248 14.208 35.54304 35.53792 35.54304zM128.72704 481.06496a35.53792 35.53792 0 0 0 35.54304 35.54304 35.54304 35.54304 0 1 0-35.54304-35.54304z" fill="#ffffff" p-id="10796"></path><path d="M270.90944 481.06496a35.54304 35.54304 0 1 0 71.08608 0.03584v-0.03072a35.54304 35.54304 0 1 0-71.08608-0.00512z" fill="#ffffff" p-id="10797"></path><path d="M128.72704 771.39456a35.54304 35.54304 0 1 0 71.08608 0 35.54304 35.54304 0 1 0-71.08608 0zM270.90944 771.39456a35.5328 35.5328 0 0 0 35.52768 35.55328 35.53792 35.53792 0 0 0 35.5584-35.52256v-0.03072a35.54304 35.54304 0 1 0-71.08608 0z" fill="#ffffff" p-id="10798"></path><path d="M832.52224 814.04416h-284.35968c-21.31968 0-35.53792-14.21312-35.53792-35.54304 0-21.3248 14.21824-35.53792 35.53792-35.53792h284.35968c21.32992 0 35.54304 14.21312 35.54304 35.53792 0 21.32992-14.21312 35.54304-35.54304 35.54304z m0-304.54272h-284.35968c-21.31968 0-35.53792-14.21824-35.53792-35.54304s14.21824-35.53792 35.53792-35.53792h284.35968c21.32992 0 35.54304 14.21312 35.54304 35.53792s-14.21312 35.54304-35.54304 35.54304z m0-283.22304h-284.35968c-21.31968 0-35.53792-14.21824-35.53792-35.54304 0-21.32992 14.21824-35.54304 35.53792-35.54304h284.35968c21.32992 0 35.54304 14.21312 35.54304 35.54304 0 21.3248-14.21312 35.54304-35.54304 35.54304z" fill="#ffffff" p-id="10799"></path></svg>