<?xml version="1.0" standalone="no"?><!DOCTYPE svg PUBLIC "-//W3C//DTD SVG 1.1//EN" "http://www.w3.org/Graphics/SVG/1.1/DTD/svg11.dtd"><svg t="1514398094541" class="icon" style="" viewBox="0 0 1024 1024" version="1.1" xmlns="http://www.w3.org/2000/svg" p-id="11445" xmlns:xlink="http://www.w3.org/1999/xlink" width="200" height="200"><defs><style type="text/css"></style></defs><path d="M510.65856 63.25248c60.45184 0 119.03488 11.84256 174.22848 35.16416a446.39744 446.39744 0 0 1 142.2592 95.90784 446.34624 446.34624 0 0 1 95.90272 142.26432c23.31648 55.1936 35.16928 113.77152 35.16928 174.13632v0.09728c0 60.46208-11.8528 119.03488-35.16928 174.1312a446.28992 446.28992 0 0 1-95.90272 142.26432 446.39744 446.39744 0 0 1-142.2592 95.90784c-55.1936 23.3216-113.78176 35.15392-174.22848 35.15392-60.4672 0-119.03488-11.83744-174.22848-35.15392a446.3104 446.3104 0 0 1-142.26432-95.90784 446.3104 446.3104 0 0 1-95.90784-142.26432c-23.3216-55.18848-35.15904-113.77152-35.15904-174.1312v-0.09728c0-60.45696 11.83744-119.03488 35.15904-174.13632a446.3616 446.3616 0 0 1 95.90784-142.26432 446.3104 446.3104 0 0 1 142.26432-95.90784c55.1936-23.31648 113.7664-35.16416 174.22848-35.16416m0-48.06144c-273.76128 0-495.63648 221.87008-495.63648 495.63648v0.1024c0 273.66912 221.87008 495.63648 495.63648 495.63648 273.77152 0 495.6416-221.8752 495.6416-495.63648v-0.10752c0-273.76128-221.87008-495.63136-495.6416-495.63136z" fill="#c8c8c8" p-id="11446"></path><path d="M681.5744 659.8144l40.63744 40.54528h-77.58848a24.91904 24.91904 0 0 1-21.89312-13.09184l-94.26944-176.3072 93.9264-175.53408a26.0352 26.0352 0 0 1 22.93248-13.7728l76.72832-0.16896-40.46336 40.38144h47.39584l55.77216-55.7824-55.77216-55.7824h-47.39584l40.38656 40.38656-76.73856 0.16896a56.79104 56.79104 0 0 0-50.03776 30.02368l-84.2752 157.40928-84.59776-158.17728a55.5264 55.5264 0 0 0-49.02912-29.42464H299.28448l40.37632-40.38656h-47.39072L236.48768 306.08384l55.7824 55.7824h47.39072l-40.37632-40.38144h78.0032a24.8832 24.8832 0 0 1 21.89824 13.08672L493.4656 510.88384l-93.8496 175.5392a26.04032 26.04032 0 0 1-22.92224 13.76768H299.44832l40.38144-40.37632h-47.39072l-55.7824 55.77216 55.7824 55.77728h47.39072l-40.38144-40.3712h77.25056c21.0432 0 40.21248-11.55072 50.12992-30.03392l84.16768-157.31712 84.59776 158.17728a55.5008 55.5008 0 0 0 49.01888 29.42464h77.25056l-40.20736 40.21248h47.3856l55.7824-55.7824-55.7824-55.77728h-47.47264v-0.08192z" fill="#c8c8c8" p-id="11447"></path></svg>